<!DOCTYPE svg PUBLIC "-//W3C//DTD SVG 1.1//EN" "http://www.w3.org/Graphics/SVG/1.1/DTD/svg11.dtd">
<!-- Uploaded to: SVG Repo, www.svgrepo.com, Transformed by: SVG Repo Mixer Tools -->
<svg width="100px" height="100px" viewBox="-0.64 -0.64 33.28 33.28" id="Lager_30" data-name="Lager 30" xmlns="http://www.w3.org/2000/svg" fill="#ffffff" stroke="#ffffff" stroke-width="0.00032" transform="rotate(0)">
<g id="SVGRepo_bgCarrier" stroke-width="0"/>
<g id="SVGRepo_tracerCarrier" stroke-linecap="round" stroke-linejoin="round" stroke="#CCCCCC" stroke-width="0.064"/>
<g id="SVGRepo_iconCarrier"> <g id="Group_9" data-name="Group 9"> <path id="Path_35" data-name="Path 35" d="M14.613,11.413,17.246,14H9.98A1.979,1.979,0,0,0,8,15.98v.04A1.979,1.979,0,0,0,9.98,18h6.963l-.042.26-2.227,2.248a2.091,2.091,0,0,0-.293,2.657,1.973,1.973,0,0,0,3.022.255l6.016-6.074a2.017,2.017,0,0,0,0-2.833l-6-5.934a1.97,1.97,0,0,0-2.806,0A2.016,2.016,0,0,0,14.613,11.413Z" fill="#ffffff"/> <path id="Path_36" data-name="Path 36" d="M0,16A16,16,0,1,0,16,0,16,16,0,0,0,0,16Zm28,0A12,12,0,1,1,16,4,12.013,12.013,0,0,1,28,16Z" fill="#ffffff"/> </g> </g>
</svg>